<?xml version="1.0" encoding="UTF-8"?>
<svg id="Layer_2" data-name="Layer 2" xmlns="http://www.w3.org/2000/svg" viewBox="0 0 125.23 125.24">
  <defs>
    <style>
      .cls-1, .cls-2 {
        stroke-width: 0px;
      }

      .cls-2 {
        fill: #10bed2;
      }
    </style>
  </defs>
  <g id="Layer_1-2" data-name="Layer 1">
    <rect class="cls-2" width="11.39" height="11.39"/>
    <rect class="cls-2" x="11.39" width="11.39" height="11.39"/>
    <rect class="cls-2" x="22.77" width="11.39" height="11.39"/>
    <rect class="cls-2" x="34.16" width="11.39" height="11.39"/>
    <rect class="cls-2" x="45.54" width="11.39" height="11.39"/>
    <rect class="cls-2" x="56.92" width="11.39" height="11.39"/>
    <rect class="cls-2" x="68.31" width="11.39" height="11.39"/>
    <rect class="cls-2" x="79.7" width="11.39" height="11.39"/>
    <rect class="cls-2" x="91.08" width="11.39" height="11.39"/>
    <rect class="cls-2" x="102.47" width="11.39" height="11.39"/>
    <rect class="cls-2" x="113.85" width="11.39" height="11.39"/>
    <rect class="cls-2" y="11.39" width="11.39" height="11.39"/>
    <rect class="cls-2" x="11.39" y="11.39" width="11.39" height="11.39"/>
    <rect class="cls-2" x="22.77" y="11.39" width="11.39" height="11.39"/>
    <rect class="cls-2" x="34.16" y="11.39" width="11.39" height="11.39"/>
    <rect class="cls-2" x="45.54" y="11.39" width="11.39" height="11.39"/>
    <rect class="cls-2" x="56.92" y="11.39" width="11.39" height="11.39"/>
    <rect class="cls-2" x="68.31" y="11.39" width="11.39" height="11.39"/>
    <rect class="cls-2" x="79.7" y="11.39" width="11.39" height="11.39"/>
    <rect class="cls-2" x="91.08" y="11.39" width="11.39" height="11.39"/>
    <rect class="cls-2" x="102.47" y="11.39" width="11.39" height="11.39"/>
    <rect class="cls-2" x="113.85" y="11.39" width="11.39" height="11.39"/>
    <rect class="cls-2" y="22.77" width="11.39" height="11.39"/>
    <rect class="cls-2" x="11.39" y="22.77" width="11.39" height="11.39"/>
    <rect class="cls-2" x="22.77" y="22.77" width="11.39" height="11.39"/>
    <rect class="cls-2" x="34.16" y="22.77" width="11.39" height="11.39"/>
    <rect class="cls-2" x="45.54" y="22.77" width="11.39" height="11.39"/>
    <rect class="cls-2" x="56.92" y="22.77" width="11.39" height="11.39"/>
    <rect class="cls-2" x="68.31" y="22.77" width="11.39" height="11.39"/>
    <rect class="cls-2" x="79.7" y="22.77" width="11.39" height="11.39"/>
    <rect class="cls-2" x="91.08" y="22.77" width="11.39" height="11.39"/>
    <rect class="cls-2" x="102.47" y="22.77" width="11.39" height="11.39"/>
    <rect class="cls-2" x="113.85" y="22.77" width="11.39" height="11.39"/>
    <rect class="cls-2" y="34.16" width="11.39" height="11.39"/>
    <rect class="cls-2" x="11.39" y="34.16" width="11.39" height="11.39"/>
    <rect class="cls-2" x="22.77" y="34.16" width="11.39" height="11.39"/>
    <rect class="cls-2" x="68.31" y="34.16" width="11.39" height="11.39"/>
    <rect class="cls-2" x="91.08" y="34.16" width="11.39" height="11.39"/>
    <rect class="cls-2" x="102.47" y="34.16" width="11.39" height="11.39"/>
    <rect class="cls-2" x="113.85" y="34.16" width="11.39" height="11.39"/>
    <rect class="cls-2" y="45.54" width="11.39" height="11.39"/>
    <rect class="cls-2" x="11.39" y="45.54" width="11.39" height="11.39"/>
    <rect class="cls-2" x="22.77" y="45.54" width="11.39" height="11.39"/>
    <rect class="cls-2" x="45.54" y="45.54" width="11.39" height="11.39"/>
    <rect class="cls-2" x="56.92" y="45.54" width="11.39" height="11.39"/>
    <rect class="cls-2" x="68.31" y="45.54" width="11.39" height="11.39"/>
    <rect class="cls-2" x="91.08" y="45.54" width="11.39" height="11.39"/>
    <rect class="cls-2" x="102.47" y="45.54" width="11.39" height="11.39"/>
    <rect class="cls-2" x="113.85" y="45.54" width="11.39" height="11.39"/>
    <rect class="cls-2" y="56.93" width="11.39" height="11.39"/>
    <rect class="cls-2" x="11.39" y="56.93" width="11.39" height="11.39"/>
    <rect class="cls-2" x="22.77" y="56.93" width="11.39" height="11.39"/>
    <rect class="cls-2" x="45.54" y="56.93" width="11.39" height="11.39"/>
    <rect class="cls-2" x="91.08" y="56.93" width="11.39" height="11.39"/>
    <rect class="cls-2" x="102.47" y="56.93" width="11.39" height="11.39"/>
    <rect class="cls-2" x="113.85" y="56.93" width="11.39" height="11.39"/>
    <rect class="cls-2" y="68.31" width="11.39" height="11.39"/>
    <rect class="cls-2" x="11.39" y="68.31" width="11.39" height="11.39"/>
    <rect class="cls-2" x="22.77" y="68.31" width="11.39" height="11.39"/>
    <rect class="cls-2" x="45.54" y="68.31" width="11.39" height="11.39"/>
    <rect class="cls-2" x="56.92" y="68.31" width="11.39" height="11.39"/>
    <rect class="cls-2" x="68.31" y="68.31" width="11.39" height="11.39"/>
    <rect class="cls-2" x="79.7" y="68.31" width="11.39" height="11.39"/>
    <rect class="cls-2" x="91.08" y="68.31" width="11.39" height="11.39"/>
    <rect class="cls-2" x="102.47" y="68.31" width="11.39" height="11.39"/>
    <rect class="cls-2" x="113.85" y="68.31" width="11.39" height="11.39"/>
    <rect class="cls-2" y="79.7" width="11.39" height="11.38"/>
    <rect class="cls-2" x="11.39" y="79.7" width="11.39" height="11.38"/>
    <rect class="cls-2" x="22.77" y="79.7" width="11.39" height="11.38"/>
    <rect class="cls-1" x="34.16" y="34.16" width="11.39" height="11.39"/>
    <rect class="cls-1" x="45.54" y="34.16" width="11.39" height="11.39"/>
    <rect class="cls-1" x="56.92" y="34.16" width="11.39" height="11.39"/>
    <rect class="cls-1" x="79.7" y="34.16" width="11.39" height="11.39"/>
    <rect class="cls-1" x="34.16" y="45.54" width="11.39" height="11.39"/>
    <rect class="cls-1" x="79.7" y="45.54" width="11.39" height="11.39"/>
    <rect class="cls-1" x="34.16" y="56.93" width="11.39" height="11.39"/>
    <rect class="cls-1" x="56.92" y="56.93" width="11.39" height="11.39"/>
    <rect class="cls-1" x="68.31" y="56.93" width="11.39" height="11.39"/>
    <rect class="cls-1" x="79.7" y="56.93" width="11.39" height="11.39"/>
    <rect class="cls-1" x="34.16" y="68.31" width="11.39" height="11.39"/>
    <rect class="cls-1" x="34.16" y="79.7" width="11.39" height="11.38"/>
    <rect class="cls-1" x="45.54" y="79.7" width="11.39" height="11.38"/>
    <rect class="cls-1" x="56.92" y="79.7" width="11.39" height="11.38"/>
    <rect class="cls-1" x="68.31" y="79.7" width="11.39" height="11.38"/>
    <rect class="cls-1" x="79.7" y="79.7" width="11.39" height="11.38"/>
    <rect class="cls-2" x="91.08" y="79.7" width="11.39" height="11.38"/>
    <rect class="cls-2" x="102.47" y="79.7" width="11.39" height="11.38"/>
    <rect class="cls-2" x="113.85" y="79.7" width="11.39" height="11.38"/>
    <rect class="cls-2" y="91.08" width="11.39" height="11.38"/>
    <rect class="cls-2" x="11.39" y="91.08" width="11.39" height="11.38"/>
    <rect class="cls-2" x="22.77" y="91.08" width="11.39" height="11.38"/>
    <rect class="cls-2" x="34.16" y="91.08" width="11.39" height="11.38"/>
    <rect class="cls-2" x="45.54" y="91.08" width="11.39" height="11.38"/>
    <rect class="cls-2" x="56.92" y="91.08" width="11.39" height="11.38"/>
    <rect class="cls-2" x="68.31" y="91.08" width="11.39" height="11.38"/>
    <rect class="cls-2" x="79.7" y="91.08" width="11.39" height="11.38"/>
    <rect class="cls-2" x="91.08" y="91.08" width="11.39" height="11.38"/>
    <rect class="cls-2" x="102.47" y="91.08" width="11.39" height="11.38"/>
    <rect class="cls-2" x="113.85" y="91.08" width="11.39" height="11.38"/>
    <rect class="cls-2" y="102.47" width="11.39" height="11.38"/>
    <rect class="cls-2" x="11.39" y="102.47" width="11.39" height="11.38"/>
    <rect class="cls-2" x="22.77" y="102.47" width="11.39" height="11.38"/>
    <rect class="cls-2" x="34.16" y="102.47" width="11.39" height="11.38"/>
    <rect class="cls-2" x="45.54" y="102.47" width="11.39" height="11.38"/>
    <rect class="cls-2" x="56.92" y="102.47" width="11.39" height="11.38"/>
    <rect class="cls-2" x="68.31" y="102.47" width="11.39" height="11.38"/>
    <rect class="cls-2" x="79.7" y="102.47" width="11.39" height="11.38"/>
    <rect class="cls-2" x="91.08" y="102.47" width="11.39" height="11.38"/>
    <rect class="cls-2" x="102.47" y="102.47" width="11.39" height="11.38"/>
    <rect class="cls-2" x="113.85" y="102.47" width="11.39" height="11.38"/>
    <rect class="cls-2" y="113.85" width="11.39" height="11.38"/>
    <rect class="cls-2" x="11.39" y="113.85" width="11.39" height="11.38"/>
    <rect class="cls-2" x="22.77" y="113.85" width="11.39" height="11.38"/>
    <rect class="cls-2" x="34.16" y="113.85" width="11.39" height="11.38"/>
    <rect class="cls-2" x="45.54" y="113.85" width="11.39" height="11.38"/>
    <rect class="cls-2" x="56.92" y="113.85" width="11.39" height="11.38"/>
    <rect class="cls-2" x="68.31" y="113.85" width="11.39" height="11.38"/>
    <rect class="cls-2" x="79.7" y="113.85" width="11.39" height="11.38"/>
    <rect class="cls-2" x="91.08" y="113.85" width="11.39" height="11.38"/>
    <rect class="cls-2" x="102.47" y="113.85" width="11.39" height="11.38"/>
    <rect class="cls-2" x="113.85" y="113.85" width="11.39" height="11.38"/>
  </g>
</svg>