<?xml version="1.0" encoding="UTF-8"?>
<svg id="Layer_2" data-name="Layer 2" xmlns="http://www.w3.org/2000/svg" viewBox="0 0 88 88">
  <defs>
    <style>
      .cls-1 {
        stroke-width: 0px;
      }
    </style>
  </defs>
  <g id="Layer_1-2" data-name="Layer 1">
    <g>
      <rect class="cls-1" width="8" height="8"/>
      <rect class="cls-1" x="8" width="8" height="8"/>
      <rect class="cls-1" x="16" width="8" height="8"/>
      <rect class="cls-1" x="24" width="8" height="8"/>
      <rect class="cls-1" x="32" width="8" height="8"/>
      <rect class="cls-1" x="40" width="8" height="8"/>
      <rect class="cls-1" x="48" width="8" height="8"/>
      <rect class="cls-1" x="56" width="8" height="8"/>
      <rect class="cls-1" x="64" width="8" height="8"/>
      <rect class="cls-1" x="72" width="8" height="8"/>
      <rect class="cls-1" x="80" width="8" height="8"/>
      <rect class="cls-1" y="8" width="8" height="8"/>
      <rect class="cls-1" x="8" y="8" width="8" height="8"/>
      <rect class="cls-1" x="16" y="8" width="8" height="8"/>
      <rect class="cls-1" x="24" y="8" width="8" height="8"/>
      <rect class="cls-1" x="32" y="8" width="8" height="8"/>
      <rect class="cls-1" x="40" y="8" width="8" height="8"/>
      <rect class="cls-1" x="48" y="8" width="8" height="8"/>
      <rect class="cls-1" x="56" y="8" width="8" height="8"/>
      <rect class="cls-1" x="64" y="8" width="8" height="8"/>
      <rect class="cls-1" x="72" y="8" width="8" height="8"/>
      <rect class="cls-1" x="80" y="8" width="8" height="8"/>
      <rect class="cls-1" y="16" width="8" height="8"/>
      <rect class="cls-1" x="8" y="16" width="8" height="8"/>
      <rect class="cls-1" x="56" y="16" width="8" height="8"/>
      <rect class="cls-1" x="64" y="16" width="8" height="8"/>
      <rect class="cls-1" x="72" y="16" width="8" height="8"/>
      <rect class="cls-1" x="80" y="16" width="8" height="8"/>
      <rect class="cls-1" y="24" width="8" height="8"/>
      <rect class="cls-1" x="8" y="24" width="8" height="8"/>
      <rect class="cls-1" x="24" y="24" width="8" height="8"/>
      <rect class="cls-1" x="32" y="24" width="8" height="8"/>
      <rect class="cls-1" x="40" y="24" width="8" height="8"/>
      <rect class="cls-1" x="48" y="24" width="8" height="8"/>
      <rect class="cls-1" x="64" y="24" width="8" height="8"/>
      <rect class="cls-1" x="72" y="24" width="8" height="8"/>
      <rect class="cls-1" x="80" y="24" width="8" height="8"/>
      <rect class="cls-1" y="32" width="8" height="8"/>
      <rect class="cls-1" x="8" y="32" width="8" height="8"/>
      <rect class="cls-1" x="64" y="32" width="8" height="8"/>
      <rect class="cls-1" x="72" y="32" width="8" height="8"/>
      <rect class="cls-1" x="80" y="32" width="8" height="8"/>
      <rect class="cls-1" y="40" width="8" height="8"/>
      <rect class="cls-1" x="8" y="40" width="8" height="8"/>
      <rect class="cls-1" x="16" y="40" width="8" height="8"/>
      <rect class="cls-1" x="24" y="40" width="8" height="8"/>
      <rect class="cls-1" x="32" y="40" width="8" height="8"/>
      <rect class="cls-1" x="40" y="40" width="8" height="8"/>
      <rect class="cls-1" x="48" y="40" width="8" height="8"/>
      <rect class="cls-1" x="56" y="40" width="8" height="8"/>
      <rect class="cls-1" x="64" y="40" width="8" height="8"/>
      <rect class="cls-1" x="72" y="40" width="8" height="8"/>
      <rect class="cls-1" x="80" y="40" width="8" height="8"/>
      <rect class="cls-1" y="48" width="8" height="8"/>
      <rect class="cls-1" x="8" y="48" width="8" height="8"/>
      <rect class="cls-1" x="40" y="48" width="8" height="8"/>
      <rect class="cls-1" x="72" y="48" width="8" height="8"/>
      <rect class="cls-1" x="80" y="48" width="8" height="8"/>
      <rect class="cls-1" y="56" width="8" height="8"/>
      <rect class="cls-1" x="8" y="56" width="8" height="8"/>
      <rect class="cls-1" x="16" y="56" width="8" height="8"/>
      <rect class="cls-1" x="32" y="56" width="8" height="8"/>
      <rect class="cls-1" x="40" y="56" width="8" height="8"/>
      <rect class="cls-1" x="72" y="56" width="8" height="8"/>
      <rect class="cls-1" x="80" y="56" width="8" height="8"/>
      <rect class="cls-1" y="64" width="8" height="8"/>
      <rect class="cls-1" x="8" y="64" width="8" height="8"/>
      <rect class="cls-1" x="40" y="64" width="8" height="8"/>
      <rect class="cls-1" x="56" y="64" width="8" height="8"/>
      <rect class="cls-1" x="72" y="64" width="8" height="8"/>
      <rect class="cls-1" x="80" y="64" width="8" height="8"/>
      <rect class="cls-1" y="72" width="8" height="8"/>
      <rect class="cls-1" x="8" y="72" width="8" height="8"/>
      <rect class="cls-1" x="16" y="72" width="8" height="8"/>
      <rect class="cls-1" x="24" y="72" width="8" height="8"/>
      <rect class="cls-1" x="32" y="72" width="8" height="8"/>
      <rect class="cls-1" x="40" y="72" width="8" height="8"/>
      <rect class="cls-1" x="48" y="72" width="8" height="8"/>
      <rect class="cls-1" x="56" y="72" width="8" height="8"/>
      <rect class="cls-1" x="64" y="72" width="8" height="8"/>
      <rect class="cls-1" x="72" y="72" width="8" height="8"/>
      <rect class="cls-1" x="80" y="72" width="8" height="8"/>
      <rect class="cls-1" y="80" width="8" height="8"/>
      <rect class="cls-1" x="8" y="80" width="8" height="8"/>
      <rect class="cls-1" x="16" y="80" width="8" height="8"/>
      <rect class="cls-1" x="24" y="80" width="8" height="8"/>
      <rect class="cls-1" x="32" y="80" width="8" height="8"/>
      <rect class="cls-1" x="40" y="80" width="8" height="8"/>
      <rect class="cls-1" x="48" y="80" width="8" height="8"/>
      <rect class="cls-1" x="56" y="80" width="8" height="8"/>
      <rect class="cls-1" x="64" y="80" width="8" height="8"/>
      <rect class="cls-1" x="72" y="80" width="8" height="8"/>
      <rect class="cls-1" x="80" y="80" width="8" height="8"/>
    </g>
  </g>
</svg>